<mxfile host="app.diagrams.net" modified="2024-04-05T07:01:47.075Z" agent="Mozilla/5.0 (Macintosh; Intel Mac OS X 10_15_7) AppleWebKit/537.36 (KHTML, like Gecko) Chrome/123.0.0.0 Safari/537.36" version="24.2.2" etag="qjtPIZDoMpodsao4hSY4" type="github">
  <diagram name="第 1 页" id="EfNbBzUA4Zw1a_-X_Y7W">
    <mxGraphModel>
      <root>
        <mxCell id="0" />
        <mxCell id="1" parent="0" />
      </root>
    </mxGraphModel>
  </diagram>
</mxfile>
